<?xml version="1.0" encoding="UTF-8"?>
<!DOCTYPE svg PUBLIC "-//W3C//DTD SVG 1.1//EN" "http://www.w3.org/Graphics/SVG/1.1/DTD/svg11.dtd">
<!-- Creator: CorelDRAW -->
<svg xmlns="http://www.w3.org/2000/svg" xml:space="preserve" width="2500px" height="2500px" version="1.1" style="shape-rendering:geometricPrecision; text-rendering:geometricPrecision; image-rendering:optimizeQuality; fill-rule:evenodd; clip-rule:evenodd"
viewBox="0 0 2500 2500"
 xmlns:xlink="http://www.w3.org/1999/xlink"
 xmlns:xodm="http://www.corel.com/coreldraw/odm/2003">
 <defs>
  <style type="text/css">
   <![CDATA[
    .fil1 {fill:#748187;fill-rule:nonzero}
    .fil0 {fill:#C8E6C9;fill-rule:nonzero}
   ]]>
  </style>
 </defs>
 <g id="Слой_x0020_1">
  <metadata id="CorelCorpID_0Corel-Layer"/>
  <g id="_1736876154832">
   <path class="fil0" d="M1250.01 0.02c-690.36,0 -1250.01,559.59 -1250.01,1250.01 0,690.31 559.65,1249.96 1250.01,1249.96 690.34,0 1249.99,-559.65 1249.99,-1249.96 0,-690.42 -559.65,-1250.01 -1249.99,-1250.01z"/>
   <path class="fil1" d="M1610.56 1359c-13.29,-32.22 -33.1,-61.63 -59.42,-88.2 -26.33,-26.57 -58.68,-50.19 -97.06,-70.86 39.86,-33.46 70.49,-67.78 91.89,-102.97 21.41,-35.17 32.11,-77.37 32.11,-126.58 0,-37.39 -7.38,-72.33 -22.14,-104.81 -14.77,-32.48 -36.67,-61.01 -65.69,-85.62 -29.04,-24.6 -63.24,-43.42 -102.6,-56.46 -39.37,-13.03 -82.92,-19.56 -130.64,-19.56 -54.62,0 -104.07,7.75 -148.35,23.25 -44.29,15.5 -81.33,36.05 -111.09,61.62 -29.78,25.6 -52.4,52.54 -67.91,80.83 -15.49,28.3 -23.24,55.23 -23.24,80.82 0,26.56 8.23,47.86 24.72,63.84 16.48,16 34.56,23.99 54.25,23.99 16.73,0 31.49,-2.95 44.29,-8.86 12.79,-5.9 21.64,-14.02 26.57,-24.35 8.36,-19.2 17.58,-39.61 27.68,-61.26 10.07,-21.65 20.78,-39.37 32.1,-53.15 11.31,-13.77 26.69,-24.84 46.13,-33.21 19.43,-8.36 44.16,-12.55 74.18,-12.55 44.29,0 79.46,13.65 105.55,40.97 26.07,27.3 39.12,59.91 39.12,97.79 0,49.71 -16.37,87.84 -49.09,114.41 -32.73,26.56 -71.72,39.85 -116.98,39.85l-30.27 0c-34.94,0 -61.26,7.27 -78.97,21.77 -17.72,14.52 -26.57,33.59 -26.57,57.21 0,24.11 7.38,42.93 22.14,56.46 14.77,13.54 35.67,20.3 62.74,20.3 5.91,0 19.19,-0.98 39.86,-2.96 20.67,-1.96 35.91,-2.95 45.76,-2.95 56.09,0 99.88,16.37 131.38,49.08 31.48,32.73 47.23,77.87 47.23,135.44 0,38.88 -9.22,73.07 -27.67,102.6 -18.46,29.52 -41.83,51.79 -70.12,66.79 -28.3,15.02 -57.7,22.52 -88.2,22.52 -53.15,0 -94.36,-16.61 -123.63,-49.83 -29.29,-33.21 -56.72,-84.01 -82.3,-152.41 -3.94,-11.31 -12.3,-21.04 -25.09,-29.16 -12.8,-8.11 -26.09,-12.17 -39.86,-12.17 -27.56,0 -50.56,8.74 -69.01,26.2 -18.45,17.47 -27.68,40.48 -27.68,69.01 0,22.14 7.75,50.19 23.25,84.14 15.5,33.95 38.38,66.8 68.64,98.54 30.27,31.73 68.76,58.19 115.52,79.34 46.74,21.15 99.64,31.74 158.69,31.74 58.05,0 111.08,-9.23 159.05,-27.68 47.98,-18.45 89.43,-44.03 124.37,-76.76 34.94,-32.71 61.38,-69.99 79.35,-111.82 17.95,-41.81 26.94,-85.12 26.94,-129.9 0,-37.38 -6.65,-72.19 -19.93,-104.43z"/>
  </g>
 </g>
</svg>
